<svg xmlns="http://www.w3.org/2000/svg" style="display: none;">
  
  <!-- Achievement: 3 days streak -->
  <symbol id="icon-streak-3" viewBox="0 0 24 24" fill="none" stroke="currentColor" stroke-width="2" stroke-linecap="round" stroke-linejoin="round">
    <path d="M12 2v20M17 5H9.5a3.5 3.5 0 0 0 0 7h5a3.5 3.5 0 0 1 0 7H6"/>
  </symbol>

  <!-- Achievement: First Habit -->
  <symbol id="icon-first-blood" viewBox="0 0 24 24" fill="none" stroke="currentColor" stroke-width="2" stroke-linecap="round" stroke-linejoin="round">
    <polygon points="12 2 15.09 8.26 22 9.27 17 14.14 18.18 21.02 12 17.77 5.82 21.02 7 14.14 2 9.27 8.91 8.26 12 2"/>
  </symbol>

  <!-- Achievement: 7 days streak (Cup) -->
  <symbol id="icon-cup" viewBox="0 0 24 24" fill="none" stroke="currentColor" stroke-width="2" stroke-linecap="round" stroke-linejoin="round">
    <path d="M8 21h8M12 17v4M7 4h10M17 4v8a5 5 0 0 1-10 0V4M4 4h3v6H4zM17 4h3v6h-3z"/>
  </symbol>

</svg>
